<svg width="140" height="32" viewBox="0 0 140 32" fill="none" xmlns="http://www.w3.org/2000/svg">
<path fill-rule="evenodd" clip-rule="evenodd" d="M3.50632 10.825L3.5019 10.8205L4.86306 9.45937C6.03464 8.28779 6.03464 6.3883 4.86306 5.21672L4.50951 4.86317L4.86306 4.50962L5.21662 4.86317C6.38819 6.03474 8.28768 6.03474 9.45926 4.86317L10.8205 3.50197L10.825 3.50647V3.5H12.75C14.4068 3.5 15.75 2.15685 15.75 0.5V0H16.25V0.5C16.25 2.15685 17.5931 3.5 19.25 3.5L21.175 3.5V3.50657L21.1795 3.50197L22.5407 4.86317C23.7123 6.03474 25.6118 6.03474 26.7834 4.86317L27.1369 4.50962L27.4905 4.86317L27.1369 5.21672C25.9654 6.3883 25.9654 8.28779 27.1369 9.45937L28.4981 10.8205L28.4937 10.825H28.5V12.75C28.5 14.4068 29.8431 15.75 31.5 15.75H32V16.25L31.5 16.25C29.8431 16.25 28.5 17.5931 28.5 19.25V21.175H28.4936L28.4981 21.1795L27.137 22.5407C25.9654 23.7123 25.9654 25.6118 27.1369 26.7834L27.4905 27.1369L27.1369 27.4905L26.7834 27.1369C25.6118 25.9654 23.7123 25.9654 22.5408 27.1369L21.1796 28.4981L21.175 28.4935V28.5H19.25C17.5931 28.5 16.25 29.8431 16.25 31.5V32H15.75V31.5C15.75 29.8431 14.4068 28.5 12.75 28.5H10.825V28.4936L10.8204 28.4981L9.45924 27.1369C8.28767 25.9654 6.38818 25.9654 5.2166 27.1369L4.86305 27.4905L4.5095 27.1369L4.86305 26.7834C6.03462 25.6118 6.03462 23.7123 4.86305 22.5407L3.50185 21.1795L3.50644 21.175H3.5L3.5 19.25C3.5 17.5931 2.15685 16.25 0.5 16.25H0V15.75H0.5C2.15685 15.75 3.5 14.4068 3.5 12.75V10.825H3.50632ZM15.75 7C15.75 5.34315 14.4068 4 12.75 4H11.0295L9.81281 5.21672C8.64124 6.3883 8.64124 8.28779 9.81281 9.45936L13.7019 13.3485L13.3483 13.702L9.45926 9.81292C8.28768 8.64135 6.38819 8.64135 5.21661 9.81292L4 11.0295V12.75C4 14.4068 5.34315 15.75 7 15.75H12.5V16.25L7 16.25C5.34315 16.25 4 17.5931 4 19.25V20.9706L5.2166 22.1872C6.38818 23.3588 8.28767 23.3588 9.45924 22.1872L13.3483 18.2981L13.7019 18.6517L9.8128 22.5407C8.64122 23.7123 8.64123 25.6118 9.8128 26.7834L11.0294 28H12.75C14.4068 28 15.75 26.6569 15.75 25V19.5H16.25V25C16.25 26.6569 17.5931 28 19.25 28H20.9706L22.1872 26.7834C23.3588 25.6118 23.3588 23.7123 22.1872 22.5407L18.2981 18.6517L18.6517 18.2981L22.5408 22.1872C23.7123 23.3588 25.6118 23.3588 26.7834 22.1872L28 20.9706V19.25C28 17.5931 26.6569 16.25 25 16.25H19.5V15.75H25C26.6569 15.75 28 14.4068 28 12.75V11.0295L26.7834 9.81292C25.6118 8.64135 23.7123 8.64135 22.5407 9.81292L18.6517 13.702L18.2981 13.3485L22.1872 9.45936C23.3588 8.28779 23.3588 6.3883 22.1872 5.21672L20.9705 4H19.25C17.5931 4 16.25 5.34315 16.25 7V12.5H15.75V7Z" fill="white"/>
<path d="M51.575 7.4875H54.4V7.6375L53.675 8.5625V24.3625H49.625V24.2125L51.575 23.2875L51.55 9.3375H51.425L46.725 20.5375H46.55L41.4 9.9875H41.275V18.4125C41.275 22.4125 41.95 23.0875 44.725 24.1875V24.3625H40.725V8.8625L40 7.6375V7.4875H42.475L47.3 17.4375H47.45L51.575 7.4875Z" fill="white"/>
<path d="M60.7066 7.4875H63.0816L68.5816 24.2125V24.3625H64.0566V24.2125L66.0566 23.2875L64.4316 18.4375H58.5066C57.2816 21.9625 57.4816 23.0625 59.8566 24.2125V24.3625H55.6566V24.2125L61.2316 9.1375L60.7066 7.6375V7.4875ZM61.5066 9.9375L58.6566 17.9875H64.2816L61.6066 9.9375H61.5066Z" fill="white"/>
<path d="M77.4576 7.6625V7.4875H81.5326V24.5625H80.6326L71.1326 9.9375H71.0076V18.3625C71.0076 22.2625 71.7826 22.9875 74.5576 24.1875V24.3625H70.4576V8.9875L69.4076 7.6375V7.4875H72.0826L80.8576 20.9875V20.9625H80.9826V13.5375C80.9826 9.7375 80.2326 8.8375 77.4576 7.6625Z" fill="white"/>
<path d="M96.685 7.4875V13.0125H96.535C94.785 8.0625 94.935 7.9375 93.185 7.9375H91.685V23.3375L93.685 24.2125V24.3625H87.535V24.2125L89.56 23.3375V7.9375H88.06C86.285 7.9375 86.435 8.0625 84.71 13.0125H84.56V7.4875H96.685Z" fill="white"/>
<path d="M106.939 15.9875H106.989L112.189 24.1875V24.3625H107.214V24.2125L109.239 23.2875L104.814 16.1875H102.714V23.3375L104.739 24.2125V24.3625H98.5895V24.2125L100.589 23.3375L100.614 8.5625L98.6645 7.6375V7.4875H105.489C109.264 7.4875 111.414 8.6875 111.414 11.2375C111.414 13.3875 109.839 14.9125 106.939 15.9875ZM102.714 7.9375V15.7375H105.039C107.639 15.7375 109.089 14.2125 109.089 11.6625C109.089 9.5375 108.089 7.9375 105.014 7.9375H102.714Z" fill="white"/>
<path d="M118.506 7.4875H120.881L126.381 24.2125V24.3625H121.856V24.2125L123.856 23.2875L122.231 18.4375H116.306C115.081 21.9625 115.281 23.0625 117.656 24.2125V24.3625H113.456V24.2125L119.031 9.1375L118.506 7.6375V7.4875ZM119.306 9.9375L116.456 17.9875H122.081L119.406 9.9375H119.306Z" fill="white"/>
<path d="M134.007 14.4375L135.082 15.0125C137.532 16.2375 139.907 17.1625 139.907 19.9125C139.907 22.3875 138.007 24.6875 134.282 24.6875C132.057 24.6875 130.757 23.8875 128.957 23.6125L128.307 17.0625L128.507 17.0375C129.757 22.8375 133.607 23.7375 135.632 23.7375C138.107 23.7375 138.882 22.5625 138.882 21.2625C138.882 19.1375 136.532 18.1875 134.282 17.0875L133.132 16.4625C131.107 15.4875 128.957 14.4875 128.957 11.7125C128.957 8.7875 131.357 7.3125 134.032 7.3125C135.707 7.3125 137.157 7.9125 138.057 8.6875L138.957 7.3375H139.107V13.7625H138.957C137.757 10.3625 135.632 8.2625 132.707 8.2625C131.082 8.2625 129.882 9.0375 129.882 10.5125C129.882 12.3625 131.782 13.3125 134.007 14.4375Z" fill="white"/>
</svg>
